<svg width="11" height="19" viewBox="0 0 11 19" fill="none" xmlns="http://www.w3.org/2000/svg">
<path d="M10.7871 9.35352C10.7871 8.95312 10.6406 8.62109 10.3281 8.30859L2.80859 0.955078C2.55469 0.701172 2.25195 0.583984 1.89062 0.583984C1.1582 0.583984 0.5625 1.16016 0.5625 1.89258C0.5625 2.25391 0.71875 2.58594 0.982422 2.84961L7.66211 9.34375L0.982422 15.8574C0.71875 16.1211 0.5625 16.4434 0.5625 16.8145C0.5625 17.5469 1.1582 18.1328 1.89062 18.1328C2.25195 18.1328 2.55469 18.0059 2.80859 17.752L10.3281 10.3984C10.6504 10.0859 10.7871 9.75391 10.7871 9.35352Z" fill="#8E8E93"/>
</svg>
