<svg width="21" height="21" viewBox="0 0 21 21" fill="none" xmlns="http://www.w3.org/2000/svg">
<path d="M10.6875 20.5391C16.2734 20.5391 20.873 15.9395 20.873 10.3535C20.873 4.77734 16.2637 0.167969 10.6777 0.167969C5.10156 0.167969 0.501953 4.77734 0.501953 10.3535C0.501953 15.9395 5.10156 20.5391 10.6875 20.5391ZM7.5332 14.5137C6.97656 14.5137 6.53711 14.0742 6.53711 13.498C6.53711 13.2441 6.64453 12.9902 6.83008 12.8047L9.26172 10.373L6.83008 7.93164C6.64453 7.74609 6.53711 7.49219 6.53711 7.23828C6.53711 6.67188 6.97656 6.23242 7.5332 6.23242C7.83594 6.23242 8.06055 6.33008 8.25586 6.52539L10.6875 8.94727L13.1387 6.51562C13.3438 6.31055 13.5684 6.22266 13.8613 6.22266C14.418 6.22266 14.8574 6.66211 14.8574 7.21875C14.8574 7.49219 14.7695 7.72656 14.5645 7.93164L12.123 10.373L14.5547 12.7949C14.75 12.9805 14.8477 13.2344 14.8477 13.498C14.8477 14.0742 14.4082 14.5137 13.8418 14.5137C13.5488 14.5137 13.2949 14.416 13.1094 14.2207L10.6875 11.7988L8.27539 14.2207C8.08008 14.416 7.83594 14.5137 7.5332 14.5137Z" fill="#8E8E93"/>
</svg>
