<svg width="22" height="22" viewBox="0 0 22 22" fill="none" xmlns="http://www.w3.org/2000/svg">
<path d="M12.6602 21.2715C13.4512 21.2715 13.9883 20.6562 14.3594 19.709L20.834 2.77539C21 2.3457 21.0879 1.96484 21.0879 1.64258C21.0879 0.900391 20.6191 0.431641 19.877 0.431641C19.5547 0.431641 19.1738 0.519531 18.7441 0.685547L1.74219 7.18945C0.882812 7.52148 0.248047 8.06836 0.248047 8.85938C0.248047 9.81641 0.951172 10.1973 1.92773 10.4902L6.83984 11.9941C7.5625 12.2188 7.99219 12.209 8.50977 11.7402L19.4961 1.61328C19.6426 1.48633 19.8086 1.49609 19.916 1.60352C20.0234 1.70117 20.0332 1.88672 19.9062 2.02344L9.80859 13.0195C9.36914 13.498 9.32031 13.9863 9.53516 14.6992L11.0098 19.5234C11.3125 20.5293 11.6934 21.2715 12.6602 21.2715Z" fill="white"/>
</svg>
