<svg width="20" height="21" viewBox="0 0 20 21" fill="none" xmlns="http://www.w3.org/2000/svg">
<path d="M18.873 3.52148L19.5371 2.84766C19.9473 2.42773 19.9668 1.8418 19.5664 1.44141L19.2832 1.16797C18.9316 0.816406 18.3262 0.875 17.9355 1.26562L17.2715 1.91992L18.873 3.52148ZM7.30078 13.8926L9.36133 13.043L18.1113 4.2832L16.5 2.69141L7.75977 11.4512L6.87109 13.4434C6.76367 13.707 7.05664 13.9902 7.30078 13.8926ZM3.51172 20.5625H14.8301C16.7832 20.5625 17.9258 19.4199 17.9258 17.2812V7.04688L15.748 9.22461V17.0469C15.748 17.9453 15.2793 18.3848 14.6445 18.3848H3.69727C2.83789 18.3848 2.37891 17.9453 2.37891 17.0469V6.34375C2.37891 5.44531 2.83789 5.00586 3.69727 5.00586H11.6172L13.7949 2.83789H3.51172C1.35352 2.83789 0.201172 3.9707 0.201172 6.11914V17.2812C0.201172 19.4199 1.35352 20.5625 3.51172 20.5625Z" fill="white"/>
</svg>
