<svg width="20" height="23" viewBox="0 0 20 23" fill="none" xmlns="http://www.w3.org/2000/svg">
<path d="M1.21484 6.09375H2.49414L3.11914 20.1074C3.17773 21.5039 3.97852 22.2461 5.39453 22.2461H14.6328C16.0488 22.2461 16.8496 21.5039 16.9082 20.1074L17.5332 6.09375H18.8125C19.3496 6.09375 19.7695 5.68359 19.7695 5.13672C19.7695 4.59961 19.3496 4.18945 18.8125 4.18945H14.6426V2.75391C14.6426 1.14258 13.6172 0.195312 11.8594 0.195312H8.14844C6.39062 0.195312 5.36523 1.14258 5.36523 2.75391V4.18945H1.21484C0.677734 4.18945 0.248047 4.59961 0.248047 5.13672C0.248047 5.68359 0.677734 6.09375 1.21484 6.09375ZM7.5625 2.83203C7.5625 2.42188 7.83594 2.16797 8.29492 2.16797H11.7129C12.1719 2.16797 12.4551 2.42188 12.4551 2.83203V4.18945H7.5625V2.83203ZM6.85938 19.1309C6.43945 19.1309 6.14648 18.8574 6.13672 18.4375L5.84375 8.22266C5.83398 7.80273 6.11719 7.5293 6.55664 7.5293C6.97656 7.5293 7.26953 7.80273 7.2793 8.21289L7.57227 18.4277C7.58203 18.8379 7.29883 19.1309 6.85938 19.1309ZM10.0137 19.1309C9.58398 19.1309 9.28125 18.8477 9.28125 18.4375V8.21289C9.28125 7.80273 9.58398 7.5293 10.0137 7.5293C10.4434 7.5293 10.7363 7.80273 10.7363 8.21289V18.4375C10.7363 18.8477 10.4434 19.1309 10.0137 19.1309ZM13.168 19.1309C12.7188 19.1309 12.4355 18.8477 12.4453 18.4277L12.7383 8.21289C12.748 7.80273 13.041 7.5293 13.4707 7.5293C13.9004 7.5293 14.1836 7.8125 14.1738 8.22266L13.8809 18.4375C13.8711 18.8574 13.5781 19.1309 13.168 19.1309Z" fill="white"/>
</svg>
